G04 EAGLE Gerber RS-274X export*
G75*
%MOMM*%
%FSLAX34Y34*%
%LPD*%
%INTop Copper*%
%IPPOS*%
%AMOC8*
5,1,8,0,0,1.08239X$1,22.5*%
G01*
%ADD10R,49.326800X8.737600*%
%ADD11R,16.052800X21.564600*%
%ADD12R,1.879600X1.879600*%
%ADD13C,1.879600*%
%ADD14R,1.600200X1.600200*%
%ADD15C,1.600200*%
%ADD16C,1.143000*%
%ADD17R,1.108000X1.108000*%
%ADD18P,1.732040X8X22.500000*%
%ADD19R,4.000000X2.500000*%
%ADD20R,7.000000X4.000000*%
%ADD21C,2.355000*%
%ADD22R,17.200000X20.000000*%
%ADD23R,1.000000X1.100000*%
%ADD24C,1.905000*%
%ADD25C,2.667000*%
%ADD26R,2.200000X2.200000*%
%ADD27C,0.203200*%
%ADD28C,1.016000*%
%ADD29C,0.756400*%
%ADD30C,1.524000*%


D10*
X948436Y417830D03*
D11*
X1114806Y481965D03*
D12*
X836930Y251460D03*
D13*
X862330Y251460D03*
X887730Y251460D03*
X913130Y251460D03*
X938530Y251460D03*
X963930Y251460D03*
X989330Y251460D03*
X1014730Y251460D03*
X684530Y251460D03*
X709930Y251460D03*
X735330Y251460D03*
X760730Y251460D03*
X786130Y251460D03*
D12*
X1065530Y251460D03*
D13*
X1090930Y251460D03*
X1116330Y251460D03*
X1141730Y251460D03*
X1167130Y251460D03*
X1192530Y251460D03*
X1217930Y251460D03*
X1243330Y251460D03*
D14*
X1294130Y327660D03*
D15*
X1268730Y327660D03*
X1294130Y353060D03*
X1268730Y353060D03*
X1294130Y378460D03*
X1268730Y378460D03*
X1294130Y403860D03*
X1268730Y403860D03*
X1294130Y429260D03*
X1268730Y429260D03*
X1294130Y454660D03*
X1268730Y454660D03*
X1294130Y480060D03*
X1268730Y480060D03*
X1294130Y505460D03*
X1268730Y505460D03*
X1294130Y530860D03*
X1268730Y530860D03*
X1294130Y556260D03*
X1268730Y556260D03*
X1294130Y581660D03*
X1268730Y581660D03*
X1294130Y607060D03*
X1268730Y607060D03*
X1294130Y632460D03*
X1268730Y632460D03*
X1294130Y657860D03*
X1268730Y657860D03*
X1294130Y683260D03*
X1268730Y683260D03*
X1294130Y708660D03*
X1268730Y708660D03*
D14*
X1192530Y734060D03*
D15*
X1167130Y734060D03*
X1141730Y734060D03*
X1116330Y734060D03*
X1090930Y734060D03*
X1065530Y734060D03*
X1040130Y734060D03*
X1014730Y734060D03*
D14*
X963930Y530860D03*
D15*
X963930Y505460D03*
X963930Y480060D03*
X989330Y530860D03*
X989330Y505460D03*
X989330Y480060D03*
D14*
X1268730Y734060D03*
D15*
X1294130Y734060D03*
D14*
X1268730Y302260D03*
D15*
X1294130Y302260D03*
D14*
X963930Y734060D03*
D15*
X938530Y734060D03*
X913130Y734060D03*
X887730Y734060D03*
X862330Y734060D03*
X836930Y734060D03*
X811530Y734060D03*
X786130Y734060D03*
D14*
X745490Y734060D03*
D15*
X720090Y734060D03*
X694690Y734060D03*
X669290Y734060D03*
X643890Y734060D03*
X618490Y734060D03*
X593090Y734060D03*
X567690Y734060D03*
X542290Y734060D03*
X516890Y734060D03*
D16*
X554393Y636342D03*
X554393Y623642D03*
X567093Y623642D03*
X567093Y636342D03*
X554393Y610942D03*
X567093Y610942D03*
X554393Y598242D03*
X567093Y598242D03*
X554393Y585542D03*
D17*
X567093Y585542D03*
D15*
X661807Y660626D03*
X636407Y660626D03*
X611007Y660626D03*
X585607Y660626D03*
D18*
X564040Y398660D03*
X564040Y373260D03*
D14*
X564040Y347860D03*
D18*
X589440Y398660D03*
X589440Y373260D03*
X589440Y347860D03*
D12*
X608260Y251330D03*
D13*
X633660Y251330D03*
X659130Y251450D03*
D19*
X497900Y349600D03*
D20*
X410400Y420600D03*
X410400Y290600D03*
D21*
X863600Y673100D03*
X825500Y673100D03*
X749300Y673100D03*
X711200Y673100D03*
D22*
X787400Y510160D03*
D13*
X647700Y355600D03*
X647700Y381000D03*
X647700Y406400D03*
X647700Y431800D03*
X647700Y457200D03*
X647700Y482600D03*
X647700Y508000D03*
X647700Y533400D03*
X647700Y558800D03*
X647700Y584200D03*
D23*
X372872Y468004D03*
X372872Y485004D03*
D24*
X399288Y557530D03*
D25*
X424787Y532031D03*
X373789Y532031D03*
X373789Y583029D03*
X424787Y583029D03*
D26*
X429758Y727530D03*
X384758Y727530D03*
X384758Y641530D03*
X429758Y641530D03*
D23*
X907288Y657978D03*
X907288Y640978D03*
D27*
X570386Y277114D02*
X497900Y349600D01*
D28*
X833628Y622554D02*
X863600Y673100D01*
X833628Y622554D02*
X635000Y623316D01*
X611124Y601980D01*
X611124Y570992D01*
X528066Y484632D01*
X497840Y452374D01*
X497900Y349600D01*
D29*
X570386Y277114D03*
D28*
X622716Y640919D02*
X803910Y641350D01*
X622716Y640919D02*
X587285Y612273D01*
X587982Y576718D01*
X576055Y564966D01*
X803910Y641350D02*
X825500Y673100D01*
X429758Y641530D02*
X384758Y641530D01*
X537972Y565658D02*
X576055Y564966D01*
X537972Y565658D02*
X463296Y642366D01*
X429758Y641530D01*
X372872Y468004D02*
X372872Y458382D01*
X410400Y420854D02*
X410400Y420600D01*
X410400Y420854D02*
X372872Y458382D01*
D27*
X410400Y420600D02*
X410400Y290600D01*
X520576Y290600D01*
X542190Y268986D02*
X543460Y268986D01*
X542190Y268986D02*
X520576Y290600D01*
D28*
X443426Y727530D02*
X429758Y727530D01*
X443426Y727530D02*
X472631Y698325D01*
X496062Y673608D01*
D30*
X496062Y673608D03*
X494792Y515620D03*
D28*
X494792Y497586D01*
X463785Y466579D01*
X372872Y468004D01*
X384758Y727530D02*
X429758Y727530D01*
D29*
X543460Y268986D03*
D27*
X372872Y485004D02*
X372872Y531114D01*
X373789Y532031D01*
X373789Y583029D02*
X424787Y583029D01*
X424787Y532031D01*
X373789Y532031D01*
X647700Y482600D02*
X670814Y459486D01*
X674624Y459486D01*
D29*
X674624Y459486D03*
D27*
X611910Y715240D02*
X593090Y734060D01*
X611910Y715240D02*
X882928Y715240D01*
X883412Y714756D01*
X892048Y714756D01*
X922782Y656472D02*
X907288Y640978D01*
X922782Y684022D02*
X892048Y714756D01*
X922782Y684022D02*
X922782Y656472D01*
D29*
X673354Y286258D03*
D27*
X673354Y329946D02*
X647700Y355600D01*
X673354Y329946D02*
X673354Y286258D01*
X673354Y261112D01*
X684530Y251460D01*
X749300Y673100D02*
X749300Y690626D01*
X757936Y699262D01*
X897128Y699262D01*
X914654Y681736D01*
X914654Y665344D01*
X907288Y657978D01*
M02*
