G04 EAGLE Gerber RS-274X export*
G75*
%MOMM*%
%FSLAX34Y34*%
%LPD*%
%INSoldermask Bottom*%
%IPPOS*%
%AMOC8*
5,1,8,0,0,1.08239X$1,22.5*%
G01*
%ADD10C,3.403600*%
%ADD11R,2.082800X2.082800*%
%ADD12C,2.082800*%
%ADD13R,1.803400X1.803400*%
%ADD14C,1.803400*%
%ADD15C,3.403200*%
%ADD16C,1.346200*%
%ADD17R,1.311200X1.311200*%
%ADD18P,1.951982X8X22.500000*%
%ADD19C,2.003200*%
%ADD20C,2.558200*%
%ADD21C,2.108200*%
%ADD22C,2.870200*%
%ADD23C,1.203200*%
%ADD24C,0.959600*%
%ADD25C,1.727200*%


D10*
X481330Y734060D03*
X1230630Y734060D03*
X1294130Y251460D03*
D11*
X836930Y251460D03*
D12*
X862330Y251460D03*
X887730Y251460D03*
X913130Y251460D03*
X938530Y251460D03*
X963930Y251460D03*
X989330Y251460D03*
X1014730Y251460D03*
X684530Y251460D03*
X709930Y251460D03*
X735330Y251460D03*
X760730Y251460D03*
X786130Y251460D03*
D11*
X1065530Y251460D03*
D12*
X1090930Y251460D03*
X1116330Y251460D03*
X1141730Y251460D03*
X1167130Y251460D03*
X1192530Y251460D03*
X1217930Y251460D03*
X1243330Y251460D03*
D13*
X1294130Y327660D03*
D14*
X1268730Y327660D03*
X1294130Y353060D03*
X1268730Y353060D03*
X1294130Y378460D03*
X1268730Y378460D03*
X1294130Y403860D03*
X1268730Y403860D03*
X1294130Y429260D03*
X1268730Y429260D03*
X1294130Y454660D03*
X1268730Y454660D03*
X1294130Y480060D03*
X1268730Y480060D03*
X1294130Y505460D03*
X1268730Y505460D03*
X1294130Y530860D03*
X1268730Y530860D03*
X1294130Y556260D03*
X1268730Y556260D03*
X1294130Y581660D03*
X1268730Y581660D03*
X1294130Y607060D03*
X1268730Y607060D03*
X1294130Y632460D03*
X1268730Y632460D03*
X1294130Y657860D03*
X1268730Y657860D03*
X1294130Y683260D03*
X1268730Y683260D03*
X1294130Y708660D03*
X1268730Y708660D03*
D13*
X1192530Y734060D03*
D14*
X1167130Y734060D03*
X1141730Y734060D03*
X1116330Y734060D03*
X1090930Y734060D03*
X1065530Y734060D03*
X1040130Y734060D03*
X1014730Y734060D03*
D13*
X963930Y530860D03*
D14*
X963930Y505460D03*
X963930Y480060D03*
X989330Y530860D03*
X989330Y505460D03*
X989330Y480060D03*
D13*
X1268730Y734060D03*
D14*
X1294130Y734060D03*
D13*
X1268730Y302260D03*
D14*
X1294130Y302260D03*
D15*
X1294384Y250952D03*
X481584Y733552D03*
X1230884Y733552D03*
X468884Y250952D03*
X989584Y581152D03*
X989584Y301752D03*
D13*
X963930Y734060D03*
D14*
X938530Y734060D03*
X913130Y734060D03*
X887730Y734060D03*
X862330Y734060D03*
X836930Y734060D03*
X811530Y734060D03*
X786130Y734060D03*
D13*
X745490Y734060D03*
D14*
X720090Y734060D03*
X694690Y734060D03*
X669290Y734060D03*
X643890Y734060D03*
X618490Y734060D03*
X593090Y734060D03*
X567690Y734060D03*
X542290Y734060D03*
X516890Y734060D03*
D16*
X554393Y636342D03*
X554393Y623642D03*
X567093Y623642D03*
X567093Y636342D03*
X554393Y610942D03*
X567093Y610942D03*
X554393Y598242D03*
X567093Y598242D03*
X554393Y585542D03*
D17*
X567093Y585542D03*
D14*
X661807Y660626D03*
X636407Y660626D03*
X611007Y660626D03*
X585607Y660626D03*
D18*
X564040Y398660D03*
X564040Y373260D03*
D13*
X564040Y347860D03*
D18*
X589440Y398660D03*
X589440Y373260D03*
X589440Y347860D03*
D11*
X608260Y251330D03*
D12*
X633660Y251330D03*
X659130Y251450D03*
D19*
X377900Y380600D03*
X377900Y330600D03*
D20*
X863600Y673100D03*
X825500Y673100D03*
X749300Y673100D03*
X711200Y673100D03*
D12*
X647700Y355600D03*
X647700Y381000D03*
X647700Y406400D03*
X647700Y431800D03*
X647700Y457200D03*
X647700Y482600D03*
X647700Y508000D03*
X647700Y533400D03*
X647700Y558800D03*
X647700Y584200D03*
D21*
X399288Y557530D03*
D22*
X424787Y532031D03*
X373789Y532031D03*
X373789Y583029D03*
X424787Y583029D03*
D23*
X364758Y684530D03*
X414758Y684530D03*
D24*
X570386Y277114D03*
D25*
X496062Y673608D03*
X494792Y515620D03*
D24*
X543460Y268986D03*
X674624Y459486D03*
X673354Y286258D03*
M02*
