M48
;GenerationSoftware,Autodesk,EAGLE,9.3.2*%
;CreationDate,2019-04-25T02:01:05Z*%
FMAT,2
ICI,OFF
METRIC,TZ,000.000
T12C0.350
T11C0.600
T10C1.000
T9C1.016
T8C1.067
T7C1.270
T6C1.570
T5C1.778
T4C1.800
T3C3.200
T2C3.200
%
G90
M71
T2
X48133Y73406
X123063Y73406
X129413Y25146
T3
X98958Y30175
X98958Y58115
X46888Y25095
X129438Y25095
X48158Y73355
X123088Y73355
T4
X37790Y33060
X37790Y38060
T5
X42479Y58303
X42479Y53203
X37379Y53203
X37379Y58303
T6
X71120Y67310
X74930Y67310
X82550Y67310
X86360Y67310
T7
X39929Y55753
T8
X96393Y48006
X98933Y53086
X98933Y50546
X98933Y48006
X126873Y73406
X129413Y73406
X126873Y30226
X129413Y30226
X96393Y73406
X93853Y73406
X91313Y73406
X126873Y68326
X88773Y73406
X96393Y50546
X96393Y53086
X101473Y73406
X104013Y73406
X106553Y73406
X109093Y73406
X114173Y73406
X116713Y73406
X119253Y73406
X126873Y70866
X129413Y70866
X111633Y73406
X54229Y73406
X58944Y34786
X58944Y37326
X58944Y39866
X56404Y34786
X56404Y37326
X56404Y39866
X58561Y66063
X61101Y66063
X63641Y66063
X66181Y66063
X51689Y73406
X86233Y73406
X56769Y73406
X59309Y73406
X61849Y73406
X64389Y73406
X66929Y73406
X69469Y73406
X72009Y73406
X74549Y73406
X78613Y73406
X81153Y73406
X83693Y73406
X126873Y65786
X129413Y32766
X126873Y32766
X129413Y35306
X126873Y35306
X129413Y37846
X126873Y37846
X129413Y40386
X126873Y40386
X129413Y42926
X126873Y42926
X129413Y45466
X126873Y45466
X129413Y48006
X126873Y48006
X126873Y50546
X129413Y50546
X129413Y65786
X126873Y63246
X129413Y63246
X126873Y60706
X129413Y68326
X129413Y60706
X129413Y58166
X126873Y55626
X129413Y55626
X126873Y53086
X129413Y53086
X126873Y58166
T9
X83693Y25146
X86233Y25146
X65913Y25145
X63366Y25133
X60826Y25133
X88773Y25146
X91313Y25146
X93853Y25146
X96393Y25146
X98933Y25146
X101473Y25146
X64770Y35560
X64770Y38100
X64770Y40640
X64770Y43180
X64770Y45720
X64770Y48260
X64770Y50800
X64770Y53340
X64770Y55880
X64770Y58420
X49479Y51562
X49606Y67361
X70993Y25146
X73533Y25146
X76073Y25146
X124333Y25146
X121793Y25146
X119253Y25146
X116713Y25146
X114173Y25146
X111633Y25146
X109093Y25146
X106553Y25146
X68453Y25146
X78613Y25146
T10
X41476Y68453
X36476Y68453
T11
X55439Y62364
X55439Y63634
X56709Y62364
X56709Y63634
X55439Y61094
X56709Y61094
X55439Y59824
X56709Y59824
X55439Y58554
X56709Y58554
T12
X67335Y28626
X67462Y45949
X54346Y26899
X57039Y27711
M30